Coordinates
version=1
nRows=15
nColumns=38
inDegrees=yes

Units are S.I. units (second, meters, Newtons, ...)
Angles are in degrees.

endheader
time	pelvis_tilt	pelvis_list	pelvis_rotation	pelvis_tx	pelvis_ty	pelvis_tz	hip_flexion_r	hip_adduction_r	hip_rotation_r	knee_angle_r	ankle_angle_r	subtalar_angle_r	mtp_angle_r	hip_flexion_l	hip_adduction_l	hip_rotation_l	knee_angle_l	ankle_angle_l	subtalar_angle_l	mtp_angle_l	lumbar_extension	lumbar_bending	lumbar_rotation	arm_flex_r	arm_add_r	arm_rot_r	elbow_flex_r	pro_sup_r	wrist_flex_r	wrist_dev_r	arm_flex_l	arm_add_l	arm_rot_l	elbow_flex_l	pro_sup_l	wrist_flex_l	wrist_dev_l
      0.20000000	     -6.86864426	     -1.55915675	     -2.09019643	     -0.02724425	      0.86920218	      2.60286827	     24.59654722	      3.68332674	     -0.95535304	    -12.68804767	     -5.07996703	      0.00000000	      0.00000000	      3.39228320	     -1.90089148	      1.26319651	    -57.64764136	    -24.93898179	      0.00000000	      0.00000000	     -1.12665798	      3.03835808	     -2.61676540	    -29.01488736	    -21.39247350	      6.81176720	    115.28770756	     86.27098983	      0.00000000	      0.00000000	     -0.72640237	    -11.31137288	     19.93906308	    126.77949328	    103.35100347	      0.00000000	      0.00000000
      0.21000000	     -6.28656209	     -2.40828711	     -2.36833003	     -0.02910286	      0.86124030	      2.60601609	     25.87734929	      4.95973828	     -0.84483463	    -18.63632103	     -1.51633839	      0.00000000	      0.00000000	      4.70165209	     -2.99026516	      1.33936853	    -62.02642555	    -23.22144471	      0.00000000	      0.00000000	     -2.35577124	      3.74374959	     -1.78408353	    -27.25776120	    -21.35897146	      7.68954297	    114.38460604	     85.76895954	      0.00000000	      0.00000000	     -0.70141394	    -11.43111072	     20.47990978	    126.64894260	    102.76402071	      0.00000000	      0.00000000
      0.22000000	     -5.62372523	     -3.24879216	     -2.66145027	     -0.03139979	      0.85186030	      2.60925706	     27.28733813	      6.32900148	     -0.55688895	    -24.87309188	      2.14807239	      0.00000000	      0.00000000	      6.14894729	     -4.11311953	      1.34908814	    -66.61167074	    -21.38552298	      0.00000000	      0.00000000	     -3.59489801	      4.39098790	     -0.87483576	    -25.26355331	    -21.40690734	      8.67297602	    113.41987745	     85.25676534	      0.00000000	      0.00000000	     -0.66661026	    -11.50563915	     20.89942116	    126.40333953	    102.17676769	      0.00000000	      0.00000000
      0.23000000	     -4.98044395	     -4.04358627	     -3.00028527	     -0.03407326	      0.84149878	      2.61242046	     28.75361978	      7.75092924	     -0.09253413	    -31.12102778	      5.81442353	      0.00000000	      0.00000000	      7.80432039	     -5.22368508	      1.24639559	    -71.26319438	    -19.43263727	      0.00000000	      0.00000000	     -4.74485793	      4.97969080	      0.10217205	    -23.00866199	    -21.55517066	      9.79328963	    112.33801252	     84.77103649	      0.00000000	      0.00000000	     -0.67827178	    -11.51590517	     21.17122144	    125.97989445	    101.64221526	      0.00000000	      0.00000000
      0.24000000	     -4.51800018	     -4.74997379	     -3.42708437	     -0.03692803	      0.83091549	      2.61514171	     30.13907313	      9.14346378	      0.49470139	    -36.92073533	      9.33948900	      0.00000000	      0.00000000	      9.74625947	     -6.25628009	      0.98938116	    -75.75003209	    -17.37828624	      0.00000000	      0.00000000	     -5.66799432	      5.52652846	      1.12186335	    -20.50126306	    -21.80516925	     11.08368461	    111.05923518	     84.36940932	      0.00000000	      0.00000000	     -0.82596058	    -11.45145637	     21.29309843	    125.31225941	    101.23861026	      0.00000000	      0.00000000
      0.25000000	     -4.38472304	     -5.33914453	     -3.96324941	     -0.03961772	      0.82105061	      2.61696655	     31.25858786	     10.38947199	      1.09126421	    -41.74296583	     12.57581819	      0.00000000	      0.00000000	     12.00787960	     -7.15142975	      0.58191233	    -79.80825299	    -15.25245829	      0.00000000	      0.00000000	     -6.24820355	      6.04974858	      2.14518405	    -17.78838349	    -22.12001662	     12.56981775	    109.50951683	     84.12133498	      0.00000000	      0.00000000	     -1.20130180	    -11.32916996	     21.29667840	    124.36565130	    101.04907031	      0.00000000	      0.00000000
      0.26000000	     -4.60206683	     -5.80365415	     -4.55850398	     -0.04184100	      0.81289666	      2.61786702	     31.90400734	     11.37176396	      1.55857936	    -45.19548726	     15.41455093	      0.00000000	      0.00000000	     14.51783181	     -7.88003798	      0.10012084	    -83.23133619	    -13.09707463	      0.00000000	      0.00000000	     -6.46355779	      6.53941872	      3.12148826	    -14.93631113	    -22.41831046	     14.25551164	    107.66952665	     84.09239979	      0.00000000	      0.00000000	     -1.84428535	    -11.19900840	     21.23095867	    123.17098779	    101.12968184	      0.00000000	      0.00000000
      0.27000000	     -5.00295428	     -6.15084551	     -5.07246918	     -0.04358761	      0.80696784	      2.61843333	     31.88222622	     12.02101562	      1.79270671	    -47.20209270	     17.81093554	      0.00000000	      0.00000000	     17.09325877	     -8.44043476	     -0.32836596	    -85.93726423	    -10.96313709	      0.00000000	      0.00000000	     -6.42252415	      6.95352001	      3.98372898	    -12.00631738	    -22.59350968	     16.10261589	    105.61147763	     84.32569885	      0.00000000	      0.00000000	     -2.70506686	    -11.12813857	     21.13647581	    121.83799254	    101.47580340	      0.00000000	      0.00000000
      0.28000000	     -5.30858177	     -6.39316892	     -5.33048071	     -0.04502864	      0.80316574	      2.61913105	     31.08546573	     12.34068594	      1.77025848	    -48.01370453	     19.78189990	      0.00000000	      0.00000000	     19.51581152	     -8.83143729	     -0.58295655	    -87.96234181	     -8.90672334	      0.00000000	      0.00000000	     -6.32843162	      7.24698157	      4.64923908	     -9.04783007	    -22.55454447	     18.01889760	    103.49700177	     84.82645051	      0.00000000	      0.00000000	     -3.66061467	    -11.17405472	     21.02911182	    120.53084975	    102.00156108	      0.00000000	      0.00000000
      0.29000000	     -5.31097867	     -6.54324348	     -5.21597514	     -0.04635454	      0.80123710	      2.61981361	     29.56102483	     12.38941007	      1.55020515	    -48.04384434	     21.38147583	      0.00000000	      0.00000000	     21.64889636	     -9.03302487	     -0.60418368	    -89.39113072	     -6.98139910	      0.00000000	      0.00000000	     -6.37669049	      7.39746357	      5.04703625	     -6.11105488	    -22.26425851	     19.87197722	    101.53864619	     85.55609777	      0.00000000	      0.00000000	     -4.58478035	    -11.36565589	     20.90095136	    119.41540145	    102.54583554	      0.00000000	      0.00000000
      0.30000000	     -5.00570316	     -6.60453224	     -4.72676621	     -0.04772135	      0.80091958	      2.62025761	     27.52175805	     12.23981219	      1.23602648	    -47.65137742	     22.66974726	      0.00000000	      0.00000000	     23.51309074	     -9.01498094	     -0.41266623	    -90.28456622	     -5.22653747	      0.00000000	      0.00000000	     -6.63765971	      7.40588852	      5.16385108	     -3.26460189	    -21.75258592	     21.53052102	     99.94634994	     86.43865415	      0.00000000	      0.00000000	     -5.42106177	    -11.69856508	     20.73249422	    118.60871238	    102.90868849	      0.00000000	      0.00000000
      0.31000000	     -4.57830791	     -6.55617772	     -3.97186022	     -0.04922644	      0.80200744	      2.62052652	     25.26862552	     11.94418066	      0.92638884	    -47.01017428	     23.68766708	      0.00000000	      0.00000000	     25.26125197	     -8.75878211	     -0.09551414	    -90.65540505	     -3.65614998	      0.00000000	      0.00000000	     -7.00133549	      7.28754663	      5.06831218	     -0.60306772	    -21.09853188	     22.91083539	     98.87908171	     87.37657871	      0.00000000	      0.00000000	     -6.20403460	    -12.13787064	     20.50891313	    118.15782836	    102.90786004	      0.00000000	      0.00000000
      0.32000000	     -4.28589184	     -6.36196300	     -3.12029882	     -0.05081090	      0.80426715	      2.62057404	     23.05870783	     11.51948265	      0.68237951	    -46.12049367	     24.44162412	      0.00000000	      0.00000000	     27.07092538	     -8.26788000	      0.22152382	    -90.48815728	     -2.25589327	      0.00000000	      0.00000000	     -7.23307437	      7.06468128	      4.88667561	      1.76575718	    -20.39355582	     23.99858983	     98.41302389	     88.26958462	      0.00000000	      0.00000000	     -7.02167339	    -12.62829392	     20.23236705	    118.04656663	    102.43310703	      0.00000000	      0.00000000
      0.33000000	     -4.31728136	     -6.00469508	     -2.32203570	     -0.05211143	      0.80716142	      2.62012802	     21.00558344	     10.95350427	      0.52346543	    -44.90643647	     24.89699619	      0.00000000	      0.00000000	     29.03343028	     -7.56730400	      0.41131694	    -89.76729206	     -0.99215922	      0.00000000	      0.00000000	     -7.11680195	      6.75448385	      4.74816515	      3.75767457	    -19.70699021	     24.83012398	     98.53158647	     89.03014021	      0.00000000	      0.00000000	     -7.95250611	    -13.11474449	     19.92148992	    118.21170870	    101.47655105	      0.00000000	      0.00000000
      0.34000000	     -4.70393845	     -5.50315029	     -1.64970798	     -0.05283123	      0.81031168	      2.61914691	     19.06934723	     10.22766394	      0.44140730	    -43.30788141	     24.98030846	      0.00000000	      0.00000000	     31.10342096	     -6.70329810	      0.39140065	    -88.48593755	      0.17014912	      0.00000000	      0.00000000	     -6.59138667	      6.35585044	      4.73874596	      5.35324912	    -19.06761133	     25.45050872	     99.13823219	     89.59340862	      0.00000000	      0.00000000	     -9.01832308	    -13.56336665	     19.59870137	    118.56144738	    100.13060976	      0.00000000	      0.00000000
